<svg viewBox="0 0 97 107" xmlns="http://www.w3.org/2000/svg">
  <path d="M58 99.1432C57.6596 99.3176 57.4894 99.6663 57.149 99.8406C51.192 103.851 43.0225 102.107 39.1079 96.0048C35.1933 89.9023 36.8953 81.5333 42.8523 77.5231C43.1927 77.3487 43.5331 77.1744 43.8735 77L58 99.1432Z" fill="#43594C"/>
  <path d="M59 0C59.6957 0.695652 60.3913 1.21739 61.087 1.91304C74.3043 15.1304 74.3043 36.6956 61.087 50.087C47.8696 63.3043 26.3043 63.3043 12.913 50.087C12.2174 49.3913 11.5217 48.6957 11 48L59 0Z" fill="#FAA302"/>
  <path d="M50.9302 8C51.4537 8.34745 51.9771 8.86862 52.3261 9.21607C61.2246 18.076 61.2246 32.4951 52.3261 41.355C43.4275 50.215 28.9455 50.215 20.2214 41.355C19.6979 40.8339 19.349 40.4864 19 39.9653L50.9302 8Z" fill="#FB6F00"/>
  <path d="M44.2 14C44.5398 14.177 44.7097 14.531 45.0496 14.885C50.3168 20.3717 50.3168 29.3982 45.0496 34.885C39.7823 40.3717 31.1168 40.3717 25.8496 34.885C25.5097 34.531 25.3398 34.354 25 34L44.2 14Z" fill="#C14200"/>
  <path d="M88.6854 10C89.3703 11.0381 90.0552 12.0761 90.5689 13.1142C102.213 34.3946 94.5073 61.0383 73.4455 72.63C52.3838 84.2218 26.0138 76.4363 14.5411 55.1559C13.8562 54.1178 13.3425 52.9068 13 51.6957L88.6854 10Z" fill="#FAA302"/>
  <path d="M90.3768 12C91.0688 12.8701 91.5878 13.9142 92.1069 14.9583C102.66 34.2745 95.5671 58.4631 76.363 69.0783C57.159 79.6935 33.1107 72.5587 22.5571 53.2426C22.0381 52.1985 21.519 51.1543 21 50.1102L90.3768 12Z" fill="#C14200"/>
  <path d="M74.4432 18C74.787 18.6871 75.3027 19.2024 75.6465 19.8895C82.8661 32.9442 78.053 49.4344 64.817 56.6489C51.753 63.8633 35.251 59.0537 28.0314 45.8272C27.6876 45.1401 27.3438 44.453 27 43.7659L74.4432 18Z" fill="#FB6F00"/>
  <path d="M64.8671 23.3515C65.04 23.6974 65.386 24.0434 65.559 24.5623C69.8833 32.3461 66.9428 42.2056 59.1589 46.5299C51.3751 50.8543 41.5156 47.9137 37.1913 40.1299C37.0183 39.784 36.8453 39.265 36.4994 38.9191L64.8671 23.3515Z" fill="#FAA302"/>
  <path d="M0.00178141 38.0542C0.174755 37.7083 0.347725 37.3623 0.693672 37.1894C5.19099 31.4812 13.4937 30.4434 19.2019 35.1137C24.91 39.611 25.9478 47.9137 21.2775 53.6219C21.1046 53.9678 20.7586 54.1408 20.5857 54.4867L0.00178141 38.0542Z" fill="#FAA302"/>
  <path d="M19 48.3506C18.8315 48.5238 18.8315 48.6969 18.663 48.8701C16.1351 52.3333 11.4165 53.0259 8.04608 50.4285C4.67565 47.8311 4.00156 42.9827 6.52939 39.5195C6.69791 39.3463 6.86643 39.1732 6.86643 39L19 48.3506Z" fill="#43594C"/>
  <path d="M66 104.143C65.6596 104.318 65.4894 104.666 65.149 104.841C59.192 108.851 51.0225 107.107 47.1079 101.005C43.1933 94.9023 44.8953 86.5333 50.8523 82.5231C51.1927 82.3487 51.5331 82.1744 51.8735 82L66 104.143Z" fill="#FAA302"/>
  <path d="M47.1079 100.734C43.1933 94.7187 44.8953 86.4687 50.8523 82.5156C51.1927 82.3437 51.5331 82.1719 51.8735 82L66 104" fill="#FB6F00"/>
  <path d="M54 85.854C53.3125 86.3742 52.625 86.8943 51.9374 87.2411C38.5308 96.0837 20.4835 92.2693 11.7176 78.5719C2.95172 65.0479 6.73308 46.8426 20.3116 38" fill="#FAA302"/>
  <path d="M26.8537 45L54 85.7939C53.3171 86.3191 52.6341 86.8444 51.9512 87.1945C38.6341 96.1237 20.7073 92.2719 12 78.4405" fill="#43594C"/>
  <path d="M49 78.5859C48.4824 78.9353 48.1373 79.2847 47.6198 79.634C38.1305 85.9224 25.5358 83.1275 19.3247 73.5203C13.1135 63.9131 15.874 51.1617 25.3632 44.8734C25.8808 44.524 26.3984 44.3494 26.916 44L49 78.5859Z" fill="#FB6F00"/>
  <path d="M45 71.3332C44.6574 71.5026 44.486 71.6721 44.1434 72.011C38.3184 75.7387 30.6089 74.0443 27.0111 68.4526C23.242 62.6916 24.9552 55.0666 30.6089 51.5083C30.9515 51.3389 31.2942 51.1694 31.4655 51L45 71.3332Z" fill="#C14200"/>
  <path d="M11 38C10.4477 38 10 37.3284 10 36.5C10 35.6716 10.4477 35 11 35C11.5523 35 12 35.6716 12 36.5C12 37.3284 11.5523 38 11 38Z" fill="white"/>
</svg>