<svg xmlns="http://www.w3.org/2000/svg">
  <defs>
    <!-- How to reg icon -->
    <symbol id="how-to-reg" viewBox="0 0 24 24">
      <path d="M9 17l3-2.94c-.39-.04-.68-.06-1-.06-2.67 0-8 1.34-8 4v2h9l-3-3zm2-5c2.21 0 4-1.79 4-4s-1.79-4-4-4-4 1.79-4 4 1.79 4 4 4m4.47 8.5L12 17l1.4-1.41 2.07 2.08 5.13-5.17 1.4 1.41z"/>
    </symbol>

    <!-- Account group icon -->
    <symbol id="account-group" viewBox="0 0 24 24">
      <path d="M12,5.5A3.5,3.5 0 0,1 15.5,9A3.5,3.5 0 0,1 12,12.5A3.5,3.5 0 0,1 8.5,9A3.5,3.5 0 0,1 12,5.5M5,8C5.56,8 6.08,8.15 6.53,8.42C6.38,9.85 6.8,11.27 7.66,12.38C7.16,13.34 6.16,14 5,14A3,3 0 0,1 2,11A3,3 0 0,1 5,8M19,8A3,3 0 0,1 22,11A3,3 0 0,1 19,14C17.84,14 16.84,13.34 16.34,12.38C17.2,11.27 17.62,9.85 17.47,8.42C17.92,8.15 18.44,8 19,8M5.5,18.25C5.5,16.18 8.41,14.5 12,14.5C15.59,14.5 18.5,16.18 18.5,18.25V20H5.5V18.25M0,20V18.5C0,17.11 1.89,15.94 4.45,15.6C3.86,16.28 3.5,17.22 3.5,18.25V20H0M24,20H20.5V18.25C20.5,17.22 20.14,16.28 19.55,15.6C22.11,15.94 24,17.11 24,18.5V20Z"/>
    </symbol>

    <!-- History edu icon -->
    <symbol id="history-edu" viewBox="0 0 24 24">
      <path d="M9 4v1.38c-.83-.33-1.72-.5-2.61-.5-1.79 0-3.58.68-4.95 2.05l3.33 3.33h1.11v1.11c.86.86 1.98 1.31 3.11 1.36V15H6v3c0 1.1.9 2 2 2h10c1.66 0 3-1.34 3-3V4H9zm-1.11 6.41V8.26H5.61L4.57 7.22a5.07 5.07 0 0 1 1.82-.34c1.34 0 2.59.52 3.54 1.46l1.41 1.41-.2.2a2.7 2.7 0 0 1-1.92.8c-.47 0-.93-.12-1.33-.34zM19 17c0 .55-.45 1-1 1s-1-.45-1-1v-2h-6v-2.59c.57-.23 1.1-.57 1.56-1.03l.2-.2L15.59 14H17v-1.41l-6-5.97V6h8v11z"/>
    </symbol>

    <!-- Campaign icon -->
    <symbol id="campaign" viewBox="0 0 24 24">
      <path d="M18 11v2h4v-2h-4zm-2 6.61c.96.71 2.21 1.65 3.2 2.39.4-.53.8-1.07 1.2-1.6-.99-.74-2.24-1.68-3.2-2.4-.4.54-.8 1.08-1.2 1.61zM20.4 5.6c-.4-.53-.8-1.07-1.2-1.6-.99.74-2.24 1.68-3.2 2.4.4.53.8 1.07 1.2 1.6.96-.72 2.21-1.65 3.2-2.4zM4 9c-1.1 0-2 .9-2 2v2c0 1.1.9 2 2 2h1v4h2v-4h1l5 3V6L8 9H4zm11.5 3c0-1.33-.58-2.53-1.5-3.35v6.69c.92-.81 1.5-2.01 1.5-3.34z"/>
    </symbol>

    <!-- Library icon -->
    <symbol id="library" viewBox="0 0 24 24">
      <path d="M12 11.55C9.64 9.35 6.48 8 3 8v11c3.48 0 6.64 1.35 9 3.55 2.36-2.19 5.52-3.55 9-3.55V8c-3.48 0-6.64 1.35-9 3.55zM12 8c1.66 0 3-1.34 3-3s-1.34-3-3-3-3 1.34-3 3 1.34 3 3 3z"/>
    </symbol>

    <!-- School icon -->
    <symbol id="school" viewBox="0 0 24 24">
      <path d="M5 13.18v4L12 21l7-3.82v-4L12 17l-7-3.82zM12 3L1 9l11 6 9-4.91V17h2V9L12 3z"/>
    </symbol>
  </defs>
</svg>